<svg width="182" height="198" viewBox="0 0 182 198" fill="none" xmlns="http://www.w3.org/2000/svg">
<path d="M107.086 16.0012C125.017 16.0011 138.943 20.1578 149.635 27.1369C160.319 34.1106 167.357 43.629 171.973 53.673C181.085 73.4998 181.011 96.0214 181.011 107.001C181.011 117.981 181.085 140.502 171.973 160.329C167.357 170.373 160.319 179.892 149.635 186.865C138.943 193.845 125.018 198.001 107.086 198.001H35.0114C31.698 198.001 29.0114 195.315 29.0114 192.001V107.001C29.0116 103.688 31.6981 101.002 35.0114 101.001C38.3251 101.001 41.0113 103.688 41.0114 107.001V186.001H107.086C123.116 186.001 134.664 182.307 143.076 176.817C151.496 171.321 157.194 163.75 161.069 155.319C168.939 138.194 169.011 118.216 169.011 107.001C169.011 95.7866 168.939 75.8081 161.069 58.6838C157.194 50.2524 151.496 42.6815 143.076 37.1857C134.927 31.867 123.835 28.2338 108.576 28.0119L107.086 28.0012H35.0114C31.698 28.0008 29.0114 25.3146 29.0114 22.0012C29.0116 18.6878 31.6981 16.0015 35.0114 16.0012H107.086ZM35.0124 20.0012C33.9081 20.0013 33.0126 20.8969 33.0124 22.0012C33.0125 23.1055 33.9081 24.001 35.0124 24.0012H107.087L108.636 24.0119C124.519 24.2433 136.378 28.0366 145.263 33.8361C154.438 39.8245 160.583 48.045 164.705 57.0138C172.988 75.0388 173.012 95.8649 173.012 107.001C173.012 118.137 172.988 138.963 164.705 156.988C160.583 165.957 154.438 174.178 145.263 180.166C136.092 186.153 123.751 190.001 107.087 190.001H37.0124V107.001C37.0122 105.897 36.1165 105.002 35.0124 105.001C33.9081 105.001 33.0126 105.897 33.0124 107.001V192.001C33.0125 193.106 33.9081 194.001 35.0124 194.001H107.087C124.385 194.001 137.518 189.999 147.45 183.516C157.379 177.035 163.971 168.166 168.34 158.659C177.037 139.733 177.012 118.059 177.012 107.001C177.012 95.9431 177.037 74.2688 168.34 55.3429C163.971 45.8366 157.379 36.9675 147.45 30.4865C137.518 24.0036 124.385 20.0012 107.087 20.0012H35.0124ZM1.11885 4.87127C1.73146 1.67804 4.77671 -0.447056 7.98506 0.0802533C11.1936 0.608005 13.3981 3.59618 12.9558 6.81756C12.8182 7.81873 12.6967 8.80728 12.5895 9.7824C12.0272 21.1603 21.4964 39.2948 55.6853 46.1174C75.5168 50.0747 90.9036 56.5097 100.608 64.8127C105.503 69.0008 109.15 73.8376 110.988 79.258C112.856 84.7658 112.724 90.5066 110.632 96.1027C109.471 99.2064 106.014 100.782 102.91 99.6213C99.8065 98.4605 98.2309 95.0032 99.3913 91.8996C100.551 88.7971 100.569 85.9033 99.6227 83.1115C98.6463 80.2323 96.5146 77.1028 92.8073 73.9308C85.3066 67.5134 72.1899 61.6469 53.3376 57.8849C36.1025 54.4457 23.3896 48.0198 14.7644 40.1974C16.2071 45.0054 18.1688 49.3493 20.5524 53.299C27.2009 64.3154 37.4223 72.7944 49.9304 79.759C65.1176 88.2152 72.7655 101.179 75.8356 115.442C78.4809 127.731 77.7493 141.01 75.7985 153.42C89.6887 155.33 100.963 152.384 109.578 146.806C119.325 140.495 126.108 130.525 129.306 119.296C135.743 96.7011 127.455 70.6235 101.827 60.5881C98.7416 59.3797 97.2194 55.8991 98.4274 52.8137C99.6356 49.7283 103.116 48.2064 106.202 49.4142C138.808 62.1817 148.593 95.3918 140.847 122.583C136.955 136.247 128.584 148.796 116.1 156.879C103.529 165.019 87.2242 168.344 68.1149 164.24C65.949 163.775 64.3105 162.194 63.6696 160.23C63.0875 159.092 62.8608 157.76 63.112 156.406C65.5709 143.158 66.6287 129.691 64.1052 117.967C61.6345 106.49 55.7687 96.7447 44.0925 90.2433C30.4635 82.6546 18.36 72.8891 10.279 59.4992C2.16001 46.046 -1.58708 29.4475 0.627635 8.78436C0.710564 7.45711 0.873594 6.14992 1.11885 4.87127ZM7.3376 4.02752C6.26826 3.85163 5.25303 4.56005 5.04853 5.6242C4.82947 6.76625 4.6843 7.93943 4.61396 9.13494C2.46171 29.0897 6.08759 44.8127 13.7038 57.4328C21.3074 70.0316 32.7843 79.3676 46.0397 86.7482C58.8861 93.9012 65.3459 104.72 68.0163 117.125C70.7043 129.613 69.5416 143.692 67.0466 157.136C66.9418 157.701 67.0864 158.253 67.4011 158.683C67.5253 159.477 68.1229 160.151 68.9558 160.33C87.1228 164.232 102.327 161.033 113.927 153.522C125.498 146.029 133.341 134.34 137.002 121.487C144.311 95.8285 135.024 64.9958 104.745 53.1388C103.717 52.7362 102.556 53.2436 102.153 54.2717C101.75 55.3001 102.257 56.4606 103.286 56.8635C131.24 67.8096 140.027 96.2649 133.154 120.392C129.724 132.432 122.411 143.261 111.753 150.163C101.411 156.859 87.7831 159.947 71.1901 156.703C73.5778 143.395 74.6981 129.159 71.9265 116.283C69.0562 102.95 62.0017 91.0587 47.9851 83.2541C35.1033 76.0815 24.2546 67.173 17.1286 55.3654C12.0938 47.0227 8.86636 37.1461 8.15107 25.2609C14.309 37.4198 28.7449 48.8983 54.1208 53.9621C73.2995 57.7892 87.1737 63.8458 95.4089 70.8918C99.5115 74.4022 102.148 78.1004 103.412 81.8263C104.665 85.5234 104.61 89.3674 103.139 93.301C102.753 94.3355 103.278 95.4874 104.312 95.8742C105.347 96.2607 106.499 95.7358 106.885 94.7013C108.667 89.9365 108.76 85.1445 107.2 80.5422C105.649 75.969 102.507 71.701 98.0085 67.8517C89.0387 60.1774 74.4088 53.9324 54.904 50.0402C19.4766 42.9708 7.83469 23.5533 8.59931 9.47576C8.71384 8.42194 8.84539 7.35425 8.99385 6.27361C9.14106 5.20029 8.40644 4.20389 7.3376 4.02752Z" fill="white"/>
</svg>
